<?xml version="1.0" encoding="UTF-8"?>
<svg width="288px" height="44px" viewBox="0 0 288 44" version="1.1" xmlns="http://www.w3.org/2000/svg" xmlns:xlink="http://www.w3.org/1999/xlink">
    <title>COVERED</title>
    <g id="Page-1" stroke="none" stroke-width="1" fill="none" fill-rule="evenodd">
        <path d="M20.68,43.96 C22.32,43.96 24.17,43.72 26.23,43.24 C28.29,42.76 30.4,41.83 32.56,40.45 C34.72,39.07 36.78,37.04 38.74,34.36 L38.74,34.36 L35.86,31.72 C34.18,34.04 32.1,35.85 29.62,37.15 C27.14,38.45 24.64,39.1 22.12,39.1 C19.44,39.1 17.16,38.34 15.28,36.82 C13.4,35.3 11.97,33.21 10.99,30.55 C10.01,27.89 9.52,24.84 9.52,21.4 C9.52,19.24 9.77,17.14 10.27,15.1 C10.77,13.06 11.53,11.24 12.55,9.64 C13.57,8.04 14.86,6.76 16.42,5.8 C17.98,4.84 19.8,4.36 21.88,4.36 C24.68,4.4 26.93,5.26 28.63,6.94 C30.33,8.62 31.44,11.12 31.96,14.44 L31.96,14.44 L35.86,14.44 L35.86,0.46 L31.24,0.46 L31.48,2.98 C29.84,2.02 28.09,1.29 26.23,0.79 C24.37,0.29 22.66,0.04 21.1,0.04 C17.62,0.04 14.56,0.69 11.92,1.99 C9.28,3.29 7.09,5.03 5.35,7.21 C3.61,9.39 2.3,11.82 1.42,14.5 C0.54,17.18 0.1,19.88 0.1,22.6 C0.1,25.6 0.59,28.39 1.57,30.97 C2.55,33.55 3.95,35.81 5.77,37.75 C7.59,39.69 9.76,41.21 12.28,42.31 C14.8,43.41 17.6,43.96 20.68,43.96 Z M62.26,43.96 C65.82,43.96 68.92,43.29 71.56,41.95 C74.2,40.61 76.39,38.85 78.13,36.67 C79.87,34.49 81.17,32.12 82.03,29.56 C82.89,27 83.32,24.48 83.32,22 C83.32,19.48 82.91,16.94 82.09,14.38 C81.27,11.82 80.02,9.45 78.34,7.27 C76.66,5.09 74.5,3.34 71.86,2.02 C69.22,0.7 66.08,0.04 62.44,0.04 C58.88,0.04 55.78,0.7 53.14,2.02 C50.5,3.34 48.31,5.08 46.57,7.24 C44.83,9.4 43.53,11.77 42.67,14.35 C41.81,16.93 41.38,19.48 41.38,22 C41.38,24.6 41.76,27.2 42.52,29.8 C43.28,32.4 44.48,34.77 46.12,36.91 C47.76,39.05 49.91,40.76 52.57,42.04 C55.23,43.32 58.46,43.96 62.26,43.96 Z M62.92,39.58 C60.64,39.58 58.72,39 57.16,37.84 C55.6,36.68 54.36,35.16 53.44,33.28 C52.52,31.4 51.85,29.4 51.43,27.28 C51.01,25.16 50.8,23.16 50.8,21.28 C50.8,19.44 50.98,17.54 51.34,15.58 C51.7,13.62 52.3,11.81 53.14,10.15 C53.98,8.49 55.1,7.13 56.5,6.07 C57.9,5.01 59.62,4.46 61.66,4.42 C63.74,4.38 65.55,4.81 67.09,5.71 C68.63,6.61 69.9,7.89 70.9,9.55 C71.9,11.21 72.64,13.18 73.12,15.46 C73.6,17.74 73.84,20.26 73.84,23.02 C73.84,24.86 73.66,26.75 73.3,28.69 C72.94,30.63 72.34,32.42 71.5,34.06 C70.66,35.7 69.54,37.03 68.14,38.05 C66.74,39.07 65,39.58 62.92,39.58 Z M109.54,43.36 C110.22,41.56 110.89,39.78 111.55,38.02 C112.21,36.26 112.87,34.49 113.53,32.71 C114.19,30.93 114.86,29.15 115.54,27.37 C116.22,25.59 116.89,23.81 117.55,22.03 C118.21,20.25 118.87,18.47 119.53,16.69 C120.19,14.91 120.86,13.14 121.54,11.38 C122.42,9.06 123.36,7.42 124.36,6.46 C125.36,5.5 126.54,5 127.9,4.96 L127.9,4.96 L127.9,1 L114.4,1 L114.4,5.62 C114.84,5.58 115.56,5.55 116.56,5.53 C117.56,5.51 118.38,5.48 119.02,5.44 C118.5,6.08 118.01,6.98 117.55,8.14 C117.09,9.3 116.76,10.22 116.56,10.9 C116.08,12.3 115.58,13.69 115.06,15.07 C114.54,16.45 114.03,17.84 113.53,19.24 C113.03,20.64 112.52,22.04 112,23.44 C111.52,24.8 111.03,26.22 110.53,27.7 C110.03,29.18 109.56,30.52 109.12,31.72 L109.12,31.72 L109.06,31.72 C108.42,30.2 107.86,28.81 107.38,27.55 C106.9,26.29 106.32,24.82 105.64,23.14 C104.72,20.9 103.8,18.64 102.88,16.36 C101.96,14.08 101.04,11.82 100.12,9.58 C99.4,7.82 99.43,6.6 100.21,5.92 C100.99,5.24 102.12,4.92 103.6,4.96 L103.6,4.96 L103.6,1 L85.9,1 L85.9,5.62 C86.34,5.58 86.83,5.55 87.37,5.53 C87.91,5.51 88.5,5.48 89.14,5.44 C89.14,6.08 89.32,6.94 89.68,8.02 C90.04,9.1 90.42,10.14 90.82,11.14 L90.82,11.14 L104.62,43.36 L109.54,43.36 Z M162.58,43 L162.88,29.8 L158.98,29.8 C158.98,31.96 158.62,33.67 157.9,34.93 C157.18,36.19 156.26,37.09 155.14,37.63 C154.02,38.17 152.86,38.44 151.66,38.44 L151.66,38.44 L143.62,38.44 C143.7,37.92 143.76,37.18 143.8,36.22 C143.84,35.26 143.86,34.24 143.86,33.16 L143.86,33.16 L143.86,23.32 L145.42,23.26 C146.5,23.22 147.49,23.3 148.39,23.5 C149.29,23.7 150,24.17 150.52,24.91 C151.04,25.65 151.3,26.86 151.3,28.54 L151.3,28.54 L155.26,28.54 L155.26,13.96 L150.64,13.96 L150.88,19.18 L143.86,19.18 L143.86,10.18 C143.86,8.62 144.02,7.47 144.34,6.73 C144.66,5.99 145.12,5.51 145.72,5.29 C146.32,5.07 147.04,4.96 147.88,4.96 L147.88,4.96 L150.04,4.9 C151.12,4.86 152.22,5.03 153.34,5.41 C154.46,5.79 155.4,6.54 156.16,7.66 C156.92,8.78 157.3,10.44 157.3,12.64 L157.3,12.64 L161.26,12.64 L160.9,1 L130.9,1 L130.9,5.62 C131.34,5.58 132.04,5.55 133,5.53 C133.96,5.51 134.76,5.48 135.4,5.44 C135.36,5.96 135.31,6.72 135.25,7.72 C135.19,8.72 135.16,9.76 135.16,10.84 L135.16,10.84 L135.16,33.82 C135.16,35.42 134.99,36.58 134.65,37.3 C134.31,38.02 133.83,38.48 133.21,38.68 C132.59,38.88 131.82,39 130.9,39.04 L130.9,39.04 L130.9,43 L162.58,43 Z M186.16,43 L186.16,38.38 C185.88,38.38 185.41,38.39 184.75,38.41 C184.09,38.43 183.42,38.45 182.74,38.47 C182.06,38.49 181.5,38.52 181.06,38.56 C181.14,38.04 181.2,37.28 181.24,36.28 C181.28,35.28 181.3,34.22 181.3,33.1 L181.3,33.1 L181.3,26.68 L181.3,26.68 L184.42,26.68 C184.82,27.08 185.21,27.56 185.59,28.12 C185.97,28.68 186.42,29.36 186.94,30.16 L186.94,30.16 L191.38,37.36 C192.18,38.64 192.93,39.77 193.63,40.75 C194.33,41.73 195.04,42.48 195.76,43 L195.76,43 L205.66,43 L205.66,39.04 C204.78,39 204,38.79 203.32,38.41 C202.64,38.03 201.96,37.44 201.28,36.64 C200.6,35.84 199.82,34.76 198.94,33.4 L198.94,33.4 L196.12,29.2 C195.6,28.4 194.97,27.64 194.23,26.92 C193.49,26.2 192.74,25.68 191.98,25.36 C194.34,24.68 196.29,23.76 197.83,22.6 C199.37,21.44 200.53,20.1 201.31,18.58 C202.09,17.06 202.5,15.46 202.54,13.78 C202.62,10.58 201.96,8.04 200.56,6.16 C199.16,4.28 197.16,2.92 194.56,2.08 C191.96,1.24 188.9,0.84 185.38,0.88 C182.54,0.92 179.7,0.94 176.86,0.94 C174.02,0.94 171.18,0.96 168.34,1 L168.34,1 L168.34,5.62 C168.78,5.58 169.48,5.55 170.44,5.53 C171.4,5.51 172.2,5.48 172.84,5.44 C172.8,5.96 172.75,6.72 172.69,7.72 C172.63,8.72 172.6,9.76 172.6,10.84 L172.6,10.84 L172.6,33.82 C172.6,35.42 172.43,36.58 172.09,37.3 C171.75,38.02 171.27,38.48 170.65,38.68 C170.03,38.88 169.26,39 168.34,39.04 L168.34,39.04 L168.34,43 L186.16,43 Z M184.18,22.36 C183.66,22.36 183.16,22.33 182.68,22.27 C182.2,22.21 181.74,22.16 181.3,22.12 L181.3,22.12 L181.3,9.82 C181.3,8.42 181.46,7.38 181.78,6.7 C182.1,6.02 182.56,5.58 183.16,5.38 C183.76,5.18 184.48,5.08 185.32,5.08 C185.92,5.08 186.68,5.15 187.6,5.29 C188.52,5.43 189.43,5.77 190.33,6.31 C191.23,6.85 191.98,7.67 192.58,8.77 C193.18,9.87 193.48,11.38 193.48,13.3 C193.48,15.34 193.17,17.03 192.55,18.37 C191.93,19.71 190.94,20.71 189.58,21.37 C188.22,22.03 186.42,22.36 184.18,22.36 Z M241.18,43 L241.48,29.8 L237.58,29.8 C237.58,31.96 237.22,33.67 236.5,34.93 C235.78,36.19 234.86,37.09 233.74,37.63 C232.62,38.17 231.46,38.44 230.26,38.44 L230.26,38.44 L222.22,38.44 C222.3,37.92 222.36,37.18 222.4,36.22 C222.44,35.26 222.46,34.24 222.46,33.16 L222.46,33.16 L222.46,23.32 L224.02,23.26 C225.1,23.22 226.09,23.3 226.99,23.5 C227.89,23.7 228.6,24.17 229.12,24.91 C229.64,25.65 229.9,26.86 229.9,28.54 L229.9,28.54 L233.86,28.54 L233.86,13.96 L229.24,13.96 L229.48,19.18 L222.46,19.18 L222.46,10.18 C222.46,8.62 222.62,7.47 222.94,6.73 C223.26,5.99 223.72,5.51 224.32,5.29 C224.92,5.07 225.64,4.96 226.48,4.96 L226.48,4.96 L228.64,4.9 C229.72,4.86 230.82,5.03 231.94,5.41 C233.06,5.79 234,6.54 234.76,7.66 C235.52,8.78 235.9,10.44 235.9,12.64 L235.9,12.64 L239.86,12.64 L239.5,1 L209.5,1 L209.5,5.62 C209.94,5.58 210.64,5.55 211.6,5.53 C212.56,5.51 213.36,5.48 214,5.44 C213.96,5.96 213.91,6.72 213.85,7.72 C213.79,8.72 213.76,9.76 213.76,10.84 L213.76,10.84 L213.76,33.82 C213.76,35.42 213.59,36.58 213.25,37.3 C212.91,38.02 212.43,38.48 211.81,38.68 C211.19,38.88 210.42,39 209.5,39.04 L209.5,39.04 L209.5,43 L241.18,43 Z M264.1,43 C268.3,43 271.88,42.35 274.84,41.05 C277.8,39.75 280.2,38.05 282.04,35.95 C283.88,33.85 285.23,31.54 286.09,29.02 C286.95,26.5 287.38,24.02 287.38,21.58 C287.38,19.1 286.92,16.63 286,14.17 C285.08,11.71 283.69,9.48 281.83,7.48 C279.97,5.48 277.59,3.89 274.69,2.71 C271.79,1.53 268.36,0.94 264.4,0.94 L264.4,0.94 L246.94,1 L246.94,5.62 C247.38,5.58 248.08,5.55 249.04,5.53 C250,5.51 250.8,5.48 251.44,5.44 C251.4,5.96 251.35,6.72 251.29,7.72 C251.23,8.72 251.2,9.76 251.2,10.84 L251.2,10.84 L251.2,33.82 C251.2,35.42 251.03,36.58 250.69,37.3 C250.35,38.02 249.87,38.48 249.25,38.68 C248.63,38.88 247.86,39 246.94,39.04 L246.94,39.04 L246.94,43 L264.1,43 Z M265.36,38.62 C264.88,38.62 264.26,38.61 263.5,38.59 C262.74,38.57 262.01,38.55 261.31,38.53 C260.61,38.51 260.06,38.52 259.66,38.56 C259.74,38.04 259.8,37.28 259.84,36.28 C259.88,35.28 259.9,34.24 259.9,33.16 L259.9,33.16 L259.9,10.06 C259.9,8.5 260.06,7.36 260.38,6.64 C260.7,5.92 261.19,5.45 261.85,5.23 C262.51,5.01 263.32,4.92 264.28,4.96 C267.08,5.04 269.49,5.72 271.51,7 C273.53,8.28 275.1,10.22 276.22,12.82 C277.34,15.42 277.9,18.76 277.9,22.84 C277.9,24.84 277.66,26.78 277.18,28.66 C276.7,30.54 275.95,32.23 274.93,33.73 C273.91,35.23 272.61,36.42 271.03,37.3 C269.45,38.18 267.56,38.62 265.36,38.62 Z" id="COVERED" fill="#0439D7" fill-rule="nonzero"></path>
    </g>
</svg>